<svg xmlns="http://www.w3.org/2000/svg" width="123" height="130" style="border:dashed 2px #aaa"><path d="M41.7 61H61v-6.3H41.7q-14.4 0-24.4 10.2Q7.2 75.2 7.2 90.6q0 14.3 10.1 24.4t24.4 10.1H61V86.7H39.2v6.4h15.3v25.6H41.7q-11.4 0-19.7-8.3t-8.3-19.8q0-12.5 8.3-21.1Q30.2 61 41.7 61z"/><path d="M75 62.3h37.7v-7.6H75q-7.4 0-12.4 5.8-5.1 5.9-5.1 14.3 0 7.6 5.1 13.2 5 5.7 12.4 5.7h20.2q4.5 0 8 3.8 3.3 4 3.3 8.7 0 5.6-3.25 9.1t-8.05 3.5H57.5v6.2h37.7q7.5 0 12.5-5.2t5-13.6q0-7.6-5-13.2-5.1-5.6-12.5-5.6H75q-4.6 0-7.9-4-3.4-3.7-3.4-8.6 0-5.6 3.25-9.05T75 62.3z"/></svg>